<svg width="30" height="29" viewBox="0 0 30 29" fill="none" xmlns="http://www.w3.org/2000/svg">
<path d="M8.75 10.8749V8.45825H26.25V10.8749H8.75ZM8.75 15.7083V13.2916H26.25V15.7083H8.75ZM8.75 20.5416V18.1249H26.25V20.5416H8.75ZM5 10.8749C4.64583 10.8749 4.34896 10.7591 4.10938 10.5275C3.86979 10.2959 3.75 10.0089 3.75 9.66659C3.75 9.32422 3.86979 9.03724 4.10938 8.80565C4.34896 8.57405 4.64583 8.45825 5 8.45825C5.35417 8.45825 5.65104 8.57405 5.89062 8.80565C6.13021 9.03724 6.25 9.32422 6.25 9.66659C6.25 10.0089 6.13021 10.2959 5.89062 10.5275C5.65104 10.7591 5.35417 10.8749 5 10.8749ZM5 15.7083C4.64583 15.7083 4.34896 15.5925 4.10938 15.3609C3.86979 15.1293 3.75 14.8423 3.75 14.4999C3.75 14.1576 3.86979 13.8706 4.10938 13.639C4.34896 13.4074 4.64583 13.2916 5 13.2916C5.35417 13.2916 5.65104 13.4074 5.89062 13.639C6.13021 13.8706 6.25 14.1576 6.25 14.4999C6.25 14.8423 6.13021 15.1293 5.89062 15.3609C5.65104 15.5925 5.35417 15.7083 5 15.7083ZM5 20.5416C4.64583 20.5416 4.34896 20.4258 4.10938 20.1942C3.86979 19.9626 3.75 19.6756 3.75 19.3333C3.75 18.9909 3.86979 18.7039 4.10938 18.4723C4.34896 18.2407 4.64583 18.1249 5 18.1249C5.35417 18.1249 5.65104 18.2407 5.89062 18.4723C6.13021 18.7039 6.25 18.9909 6.25 19.3333C6.25 19.6756 6.13021 19.9626 5.89062 20.1942C5.65104 20.4258 5.35417 20.5416 5 20.5416Z" fill="#014A77"/>
</svg>
