<svg width="134" height="90" viewBox="0 0 134 90" fill="none" xmlns="http://www.w3.org/2000/svg">
<path d="M27.9167 78.75C24.8458 78.75 22.1938 78.0313 19.9604 76.5938C17.8201 75.0938 16.75 73.3125 16.75 71.25V18.75C16.75 16.6875 17.8201 14.9375 19.9604 13.5C22.1938 12 24.8458 11.25 27.9167 11.25H106.083C109.154 11.25 111.76 12 113.9 13.5C116.133 14.9375 117.25 16.6875 117.25 18.75V71.25C117.25 73.3125 116.133 75.0938 113.9 76.5938C111.76 78.0313 109.154 78.75 106.083 78.75H27.9167ZM27.9167 71.25H106.083V18.75H27.9167V71.25ZM33.5 63.75H100.5L79.5625 45L62.8125 60L50.25 48.75L33.5 63.75ZM27.9167 71.25V18.75V71.25Z" fill="#1D1B20"/>
</svg>
